# xmcd
#
# Track frame offsets:
#	182
#	11870
#	37685
#	52242
#	69197
#	96560
#	110680
#	144127
#	154607
#	170840
#	186175
#
# Disc length: 2699 seconds
#
# Revision: 0
# Processed by: cddbd v1.5.2PL0 Copyright (c) Steve Scherf et al.
# Submitted via: audiograbber 1.83.01
#
DISCID=940a890b
DTITLE=MS® - Jugo De Hits 9.4
DYEAR=1995
DGENRE=Pop
TTITLE0=Billy Preston - Nothing From Nothing
TTITLE1=Peaches and Herb - Reunited
TTITLE2=Rita Coolidge - You
TTITLE3=Elton John - Island Girl
TTITLE4=10cc - I'm Not In Love
TTITLE5=Lou Christie - Lightin Strikes
TTITLE6=Barry White - Sha La La Means I Love You
TTITLE7=New Seekers - I'd Like To Teach The World To Sing
TTITLE8=Jim Capaldi - Eve
TTITLE9=Captain and Tennille - Love Will Keep Us Together
TTITLE10=Righteous Brothers - You've Lost That Lovin' Feeling
EXTD=MS®
EXTT0=MS®
EXTT1=
EXTT2=
EXTT3=
EXTT4=
EXTT5=
EXTT6=
EXTT7=
EXTT8=
EXTT9=
EXTT10=
PLAYORDER=
